<svg
            className="w-full max-w-[128px] text-white fill-current"
            xmlns="http://www.w3.org/2000/svg"
            viewBox="0 0 131.01 51.47"
          >
            <path
              className="cls-1"
              d="M126.05,40.55c-.87,0-1.35.56-1.44,1.58s.42,1.54,1.24,1.54a1,1,0,0,0,.8-.44v.31c0,.09.07.13.2.13H127c.13,0,.2,0,.21-.13V41C127.06,40.71,126.67,40.55,126.05,40.55Zm.6,1.75c-.13.52-.41.79-.83.79s-.65-.32-.65-1,.34-1,.86-1a.81.81,0,0,1,.62.2Z"
            ></path>
            <path
              className="cls-1"
              d="M63.49,39.62H61.1v3.92c0,.09.07.13.2.13h.18c.13,0,.2,0,.21-.13V41.8h1.14c.08,0,.12-.06.13-.16v-.12c0-.11-.05-.16-.13-.16H61.69V40.1h1.8c.07,0,.1-.07.1-.18v-.15C63.59,39.67,63.56,39.62,63.49,39.62Z"
            ></path>
            <path
              className="cls-1"
              d="M65.58,40.55c-.88,0-1.36.56-1.45,1.58s.42,1.54,1.24,1.54a1,1,0,0,0,.8-.44v.31c0,.09.07.13.2.13h.18c.13,0,.2,0,.21-.13V41C66.58,40.71,66.19,40.55,65.58,40.55Zm.59,1.75c-.13.52-.41.79-.83.79s-.65-.32-.65-1,.34-1,.87-1a.8.8,0,0,1,.61.2Z"
            ></path>
            <path
              className="cls-1"
              d="M68.92,41.07a.74.74,0,0,1,.67.32.1.1,0,0,0,.07,0l.07,0,.34-.15a.1.1,0,0,0,.05-.07.08.08,0,0,0,0,0,1.26,1.26,0,0,0-1.18-.6q-1.38,0-1.38,1.56c0,1,.46,1.53,1.38,1.55a1.26,1.26,0,0,0,1.18-.6s0,0,0,0,0,0-.05-.07l-.34-.15-.07,0a.08.08,0,0,0-.07,0,.74.74,0,0,1-.67.32c-.5,0-.76-.34-.77-1S68.42,41.07,68.92,41.07Z"
            ></path>
            <path
              className="cls-1"
              d="M73.15,40.55H73c-.13,0-.2.05-.21.13v1.74c-.14.49-.4.73-.79.74s-.54-.31-.54-.95V40.68c0-.08-.08-.13-.21-.13H71c-.13,0-.2.05-.2.13v1.54c0,1,.37,1.44,1.13,1.44a.88.88,0,0,0,.79-.39v.27c0,.09.08.13.21.13h.18c.13,0,.2,0,.2-.13V40.68C73.35,40.6,73.28,40.55,73.15,40.55Z"
            ></path>
            <path
              className="cls-1"
              d="M75.44,43.07h0a.61.61,0,0,1-.22,0c-.23,0-.34-.13-.34-.39V39.45c0-.09-.08-.14-.21-.14h-.18c-.13,0-.2,0-.21.14v3.29a.83.83,0,0,0,.93.92,1.12,1.12,0,0,0,.27,0c.08,0,.11-.13.12-.34h0Q75.59,43.07,75.44,43.07Z"
            ></path>
            <path
              className="cls-1"
              d="M78.46,39.31h-.18c-.13,0-.2,0-.2.14v1.17a2.12,2.12,0,0,0-.59-.07c-.88,0-1.36.56-1.44,1.58s.41,1.54,1.23,1.54a1,1,0,0,0,.8-.44v.31c0,.09.07.13.2.13h.18c.13,0,.2,0,.21-.13V39.45C78.66,39.36,78.59,39.31,78.46,39.31Zm-.38,3c-.13.52-.41.79-.83.79s-.65-.32-.65-1,.35-1,.87-1a.8.8,0,0,1,.61.2Z"
            ></path>
            <path
              className="cls-1"
              d="M81,40.55c-.87,0-1.35.56-1.44,1.58s.42,1.54,1.24,1.54a1,1,0,0,0,.79-.44v.31c0,.09.08.13.21.13h.18c.13,0,.2,0,.21-.13V41C82,40.71,81.57,40.55,81,40.55Zm.59,1.75c-.12.52-.4.79-.82.79s-.65-.32-.65-1,.34-1,.86-1a.77.77,0,0,1,.61.2Z"
            ></path>
            <path
              className="cls-1"
              d="M85.28,39.31H85.1c-.13,0-.2,0-.2.14v1.17a2.12,2.12,0,0,0-.59-.07c-.88,0-1.36.56-1.45,1.58s.42,1.54,1.24,1.54a1,1,0,0,0,.8-.44v.31c0,.09.07.13.2.13h.18c.13,0,.2,0,.21-.13V39.45C85.48,39.36,85.41,39.31,85.28,39.31Zm-.38,3c-.13.52-.41.79-.83.79s-.65-.32-.65-1,.34-1,.87-1a.8.8,0,0,1,.61.2Z"
            ></path>
            <path
              className="cls-1"
              d="M88.87,42.93l-.34-.15-.07,0a.08.08,0,0,0-.07,0,.73.73,0,0,1-.67.35c-.46,0-.72-.28-.81-.83l.52,0c.88,0,1.33-.37,1.35-1s-.41-.79-1-.8c-.88,0-1.36.53-1.42,1.53s.47,1.55,1.39,1.57a1.26,1.26,0,0,0,1.18-.6.07.07,0,0,0,0,0A.09.09,0,0,0,88.87,42.93ZM87.72,41c.33,0,.52.12.56.35v0c0,.21-.15.36-.45.44a1.18,1.18,0,0,1-.37.05,2.08,2.08,0,0,1-.55-.07A.84.84,0,0,1,87.72,41Z"
            ></path>
            <path
              className="cls-1"
              d="M93.35,39.31h-.18c-.13,0-.2,0-.2.14v1.17a2.15,2.15,0,0,0-.6-.07c-.87,0-1.35.56-1.44,1.58s.42,1.54,1.24,1.54a1,1,0,0,0,.8-.44v.31c0,.09.07.13.2.13h.18c.13,0,.2,0,.21-.13V39.45C93.55,39.36,93.48,39.31,93.35,39.31Zm-.38,3c-.13.52-.41.79-.83.79s-.65-.32-.65-1,.34-1,.86-1a.81.81,0,0,1,.62.2Z"
            ></path>
            <path
              className="cls-1"
              d="M96.94,42.93l-.34-.15-.07,0a.08.08,0,0,0-.07,0,.73.73,0,0,1-.67.35c-.46,0-.72-.28-.81-.83l.52,0c.88,0,1.33-.37,1.35-1s-.41-.79-1-.8c-.88,0-1.36.53-1.42,1.53s.47,1.55,1.39,1.57a1.26,1.26,0,0,0,1.18-.6.07.07,0,0,0,0,0A.09.09,0,0,0,96.94,42.93ZM95.79,41c.33,0,.52.12.56.35v0c0,.21-.15.36-.45.44a1.18,1.18,0,0,1-.37.05,2.08,2.08,0,0,1-.55-.07A.84.84,0,0,1,95.79,41Z"
            ></path>
            <path
              className="cls-1"
              d="M100.81,39.73a.27.27,0,0,0-.08-.1.26.26,0,0,0-.14,0h-.24a.21.21,0,0,0-.14,0,.14.14,0,0,0-.08.09l-1.3,3.81a.08.08,0,0,0,0,0c0,.06.06.09.17.09h.23a.25.25,0,0,0,.26-.13l.31-.92h1.44l.31.92c0,.09.12.13.26.13H102c.11,0,.16,0,.16-.09v0Zm-.88,2.48.58-1.7.58,1.7Z"
            ></path>
            <path
              className="cls-1"
              d="M105.81,40.55a1,1,0,0,0-.89.51.85.85,0,0,0-.84-.51.88.88,0,0,0-.85.52v-.39c0-.08-.08-.13-.21-.13h-.18c-.13,0-.2.05-.21.13v2.86c0,.09.08.13.21.13H103c.13,0,.2,0,.21-.13V42c.1-.63.34-.94.7-.94s.57.34.57,1v1.42c0,.09.07.13.21.13h.17c.14,0,.21,0,.21-.13V42.1c.06-.67.26-1,.62-1s.52.34.52,1v1.42c0,.09.07.13.2.13h.18c.13,0,.2,0,.21-.13V42C106.82,41,106.48,40.55,105.81,40.55Z"
            ></path>
            <path
              className="cls-1"
              d="M110.14,42.93l-.34-.15-.07,0a.08.08,0,0,0-.07,0,.73.73,0,0,1-.67.35c-.46,0-.73-.28-.81-.83l.52,0c.88,0,1.33-.37,1.35-1s-.41-.79-1-.8c-.88,0-1.36.53-1.42,1.53s.47,1.55,1.39,1.57a1.26,1.26,0,0,0,1.18-.6.07.07,0,0,0,0,0A.09.09,0,0,0,110.14,42.93ZM109,41c.33,0,.51.12.56.35v0c0,.21-.15.36-.45.44a1.18,1.18,0,0,1-.37.05,2.2,2.2,0,0,1-.56-.07A.85.85,0,0,1,109,41Z"
            ></path>
            <path
              className="cls-1"
              d="M112.4,40.55a.84.84,0,0,0-.84.46v-.33c0-.08-.07-.13-.2-.13h-.19c-.13,0-.2.05-.21.13v2.86c0,.09.09.13.22.13h.18c.13,0,.2,0,.2-.13V41.87c0-.46.21-.7.62-.72a.27.27,0,0,0,.24-.14l.12-.31a.13.13,0,0,0,0-.06Q112.55,40.55,112.4,40.55Z"
            ></path>
            <path
              className="cls-1"
              d="M113.5,40.55h-.18c-.13,0-.2.05-.21.13v2.86c0,.09.08.13.21.13h.18c.13,0,.2,0,.2-.13V40.68C113.7,40.6,113.63,40.55,113.5,40.55Z"
            ></path>
            <path
              className="cls-1"
              d="M113.51,39.42h-.2c-.13,0-.2,0-.2.15v.28c0,.1.07.14.2.14h.2c.13,0,.2,0,.2-.14v-.28C113.71,39.47,113.64,39.42,113.51,39.42Z"
            ></path>
            <path
              className="cls-1"
              d="M116,41.07a.75.75,0,0,1,.67.32.08.08,0,0,0,.07,0l.07,0,.34-.15a.09.09,0,0,0,0-.07.07.07,0,0,0,0,0,1.26,1.26,0,0,0-1.18-.6c-.92,0-1.38.54-1.39,1.56s.47,1.53,1.39,1.55a1.26,1.26,0,0,0,1.18-.6.09.09,0,0,0,0,0,.08.08,0,0,0,0-.07l-.34-.15-.07,0a.07.07,0,0,0-.07,0,.75.75,0,0,1-.67.32q-.75,0-.78-1C115.21,41.41,115.47,41.07,116,41.07Z"
            ></path>
            <path
              className="cls-1"
              d="M119.26,40.55c-.88,0-1.36.56-1.45,1.58s.42,1.54,1.24,1.54a1,1,0,0,0,.8-.44v.31c0,.09.07.13.2.13h.18c.13,0,.2,0,.21-.13V41C120.26,40.71,119.87,40.55,119.26,40.55Zm.59,1.75c-.13.52-.41.79-.83.79s-.65-.32-.65-1,.35-1,.87-1a.8.8,0,0,1,.61.2Z"
            ></path>
            <path
              className="cls-1"
              d="M122.61,40.55a1,1,0,0,0-.79.44v-.31c0-.08-.06-.13-.18-.13h-.23c-.11,0-.17.05-.18.13v2.86c0,.09.08.13.21.13h.18c.13,0,.2,0,.2-.13V41.92c.13-.53.41-.79.83-.79s.62.3.62.89v1.52c0,.09.07.13.21.13h.17c.14,0,.2,0,.21-.13V42h0C123.84,41,123.43,40.55,122.61,40.55Z"
            ></path>
            <path
              className="cls-1"
              d="M66.41,35.72l2.68-9.29H80.36a1,1,0,0,0,1-.74l1.29-4.27-11.75,0a.34.34,0,0,0-.33.15l-.18.34s1.28-4.42,3.13-4.42H83a1,1,0,0,0,1-.72l1.59-5.4L74,11.37q-5.65.42-8.26,9.4L61.1,36.48h4.3A1.05,1.05,0,0,0,66.41,35.72Z"
            ></path>
            <path
              className="cls-1"
              d="M101.41,35.88,95.56,11.39H92.1a1.14,1.14,0,0,0-1.16.66L80.2,36.48h4.21c.84,0,1-.36,1.11-.65L88,30.28l6.63,0a1,1,0,0,1,1,.55L97,36.48h3.55S101.56,36.48,101.41,35.88ZM94,26.75H89.77c-.18,0-.38.32-.38.32l3.48-8,1.7,7.18S94.66,26.75,94,26.75Z"
            ></path>
            <path
              className="cls-1"
              d="M126.67,11.39c-1.06,0-1.61,0-2.24,1.17l-8.13,15s-.11.19-.14.26a1.84,1.84,0,0,0-.14.77l-2.81-17.19h-4.09c-1.1,0-1.91,0-2.12,1.3l-4.52,23.79c.53,0,2.77,0,2.77,0,1.91,0,1.91,0,2.14-1.28l2.68-14.12,2.44,15.06h2.34c1.52,0,1.52,0,2.08-1l7.54-14-2.91,15.3h2.92c1.73,0,1.73,0,2-1.3L131,11.39Z"
            ></path>
            <path
              className="cls-1"
              d="M44.76,7.71l2.21-3-5.85,0A26.28,26.28,0,0,0,26.12,0,25.92,25.92,0,0,0,0,25.73,25.39,25.39,0,0,0,5.72,41.8L4.57,46.87H8.63c0-.29.1-.95.23-1.82.63.54,1.28,1.06,2,1.54,0,.1,0,.19,0,.26h.4a26.27,26.27,0,0,0,14.93,4.62A25.94,25.94,0,0,0,52.24,25.73,25.46,25.46,0,0,0,44.76,7.71ZM26.12,49.46a24.26,24.26,0,0,1-11-2.61h3.64l2-9.59.61-2.83-.33,0c-3,.36-5.1,1.25-6.66,2.88a13.73,13.73,0,0,0-3.28,7c-.63-.5-1.24-1-1.82-1.58a14.48,14.48,0,0,1,3.4-6.55c2.42-2.51,5.89-3.45,11.8-3.45H36.59c1.28,0,1.73,0,2.61-1.24l8.47-11.1-15.35-.07c-4.42.23-8.67.54-13.2,6.34l-3.81,4.87,3.6-13.08c-6.1,1.21-8.34,2.84-10.07,9.54L6.3,39.21A23.35,23.35,0,0,1,2,25.73,23.9,23.9,0,0,1,26.12,2,24.24,24.24,0,0,1,37.17,4.65l-9.51,0c-2.79,0-5.82,0-8.62,3.81,0,0-5.65,7.53-8.26,12.08,1.55-2.2,5-3.53,8.49-3.66H36.92a1.8,1.8,0,0,0,1.74-.79l4.89-6.69A23.44,23.44,0,0,1,50.2,25.73,23.9,23.9,0,0,1,26.12,49.46Z"
            ></path>
          </svg>